<svg width="110" height="110" viewBox="0 0 110 110" fill="none" xmlns="http://www.w3.org/2000/svg">
<g clip-path="url(#clip0_1_2)">
<rect x="-39" y="5.18359" width="99" height="62.4117" transform="rotate(-29.1241 -39 5.18359)" fill="white"/>
<rect x="-4.62793" y="53" width="99" height="62.4117" transform="rotate(29.12 -4.62793 53)" fill="white"/>
<rect x="40" y="94.1836" width="99" height="62.4117" transform="rotate(-29.1241 40 94.1836)" fill="white"/>
<rect x="65.3721" y="-42" width="99" height="62.4117" transform="rotate(29.12 65.3721 -42)" fill="white"/>
<ellipse cx="106" cy="55" rx="4" ry="8" fill="black"/>
<ellipse cx="4" cy="55" rx="4" ry="8" fill="black"/>
<circle cx="55" cy="55" r="17" stroke="black" stroke-width="10"/>
<path d="M104.515 51.9301C99.0169 44.5656 91.6694 38.5694 83.1356 34.4182C74.6029 30.2675 65.1156 28.073 55.4841 28.0018C45.8526 27.9306 36.3288 29.9846 27.7256 34.0074C19.1213 38.0307 11.6705 43.9153 6.04379 51.1945" stroke="black" stroke-width="10"/>
<path d="M5.62485 58.2565C11.1646 65.6116 18.5533 71.587 27.1224 75.7066C35.6904 79.8256 45.2057 81.9782 54.8531 81.9998C64.5006 82.0215 74.027 79.9116 82.6165 75.8314C91.207 71.7507 98.6271 65.8091 104.206 58.4799" stroke="black" stroke-width="10"/>
<mask id="path-10-inside-1_1_2" fill="white">
<path d="M8.5533 58.5888C8.08668 58.1222 7.71561 57.5692 7.46129 56.9613C7.20696 56.3534 7.07437 55.7025 7.07107 55.0459C7.06777 54.3893 7.19383 53.7398 7.44205 53.1344C7.69028 52.5291 8.05581 51.9797 8.51777 51.5178L10.5817 53.5817C10.3881 53.7754 10.2349 54.0056 10.1309 54.2593C10.0268 54.5131 9.97398 54.7853 9.97536 55.0605C9.97675 55.3357 10.0323 55.6085 10.1389 55.8633C10.2455 56.1181 10.401 56.3499 10.5966 56.5455L8.5533 58.5888Z"/>
</mask>
<path d="M8.5533 58.5888C8.08668 58.1222 7.71561 57.5692 7.46129 56.9613C7.20696 56.3534 7.07437 55.7025 7.07107 55.0459C7.06777 54.3893 7.19383 53.7398 7.44205 53.1344C7.69028 52.5291 8.05581 51.9797 8.51777 51.5178L10.5817 53.5817C10.3881 53.7754 10.2349 54.0056 10.1309 54.2593C10.0268 54.5131 9.97398 54.7853 9.97536 55.0605C9.97675 55.3357 10.0323 55.6085 10.1389 55.8633C10.2455 56.1181 10.401 56.3499 10.5966 56.5455L8.5533 58.5888Z" fill="#C4C4C4" stroke="black" stroke-width="20" mask="url(#path-10-inside-1_1_2)"/>
<mask id="path-11-inside-2_1_2" fill="white">
<path d="M101.589 51.5533C102.055 52.0199 102.427 52.573 102.681 53.1809C102.935 53.7887 103.068 54.4396 103.071 55.0962C103.074 55.7528 102.948 56.4023 102.7 57.0077C102.452 57.6131 102.086 58.1624 101.624 58.6244L99.5604 56.5604C99.754 56.3668 99.9072 56.1365 100.011 55.8828C100.115 55.629 100.168 55.3568 100.167 55.0816C100.165 54.8064 100.11 54.5336 100.003 54.2788C99.8966 54.024 99.7411 53.7922 99.5455 53.5966L101.589 51.5533Z"/>
</mask>
<path d="M101.589 51.5533C102.055 52.0199 102.427 52.573 102.681 53.1809C102.935 53.7887 103.068 54.4396 103.071 55.0962C103.074 55.7528 102.948 56.4023 102.7 57.0077C102.452 57.6131 102.086 58.1624 101.624 58.6244L99.5604 56.5604C99.754 56.3668 99.9072 56.1365 100.011 55.8828C100.115 55.629 100.168 55.3568 100.167 55.0816C100.165 54.8064 100.11 54.5336 100.003 54.2788C99.8966 54.024 99.7411 53.7922 99.5455 53.5966L101.589 51.5533Z" fill="#C4C4C4" stroke="black" stroke-width="20" mask="url(#path-11-inside-2_1_2)"/>
</g>
<defs>
<clipPath id="clip0_1_2">
<rect width="110" height="110" fill="white"/>
</clipPath>
</defs>
</svg>
